<svg width="24" height="24" viewBox="0 0 24 24" fill="none" xmlns="http://www.w3.org/2000/svg">
<path d="M6 2.25H4.5C3.70435 2.25 2.94129 2.56607 2.37868 3.12868C1.81607 3.69129 1.5 4.45435 1.5 5.25V21C1.5 21.7956 1.81607 22.5587 2.37868 23.1213C2.94129 23.6839 3.70435 24 4.5 24H19.5C20.2956 24 21.0587 23.6839 21.6213 23.1213C22.1839 22.5587 22.5 21.7956 22.5 21V5.25C22.5 4.45435 22.1839 3.69129 21.6213 3.12868C21.0587 2.56607 20.2956 2.25 19.5 2.25H18V3.75H19.5C19.8978 3.75 20.2794 3.90804 20.5607 4.18934C20.842 4.47064 21 4.85218 21 5.25V21C21 21.3978 20.842 21.7794 20.5607 22.0607C20.2794 22.342 19.8978 22.5 19.5 22.5H4.5C4.10218 22.5 3.72064 22.342 3.43934 22.0607C3.15804 21.7794 3 21.3978 3 21V5.25C3 4.85218 3.15804 4.47064 3.43934 4.18934C3.72064 3.90804 4.10218 3.75 4.5 3.75H6V2.25Z" fill="white"/>
<path d="M14.25 1.5C14.4489 1.5 14.6397 1.57902 14.7803 1.71967C14.921 1.86032 15 2.05109 15 2.25V3.75C15 3.94891 14.921 4.13968 14.7803 4.28033C14.6397 4.42098 14.4489 4.5 14.25 4.5H9.75C9.55109 4.5 9.36032 4.42098 9.21967 4.28033C9.07902 4.13968 9 3.94891 9 3.75V2.25C9 2.05109 9.07902 1.86032 9.21967 1.71967C9.36032 1.57902 9.55109 1.5 9.75 1.5H14.25ZM9.75 0C9.15326 0 8.58097 0.237053 8.15901 0.65901C7.73705 1.08097 7.5 1.65326 7.5 2.25V3.75C7.5 4.34674 7.73705 4.91903 8.15901 5.34099C8.58097 5.76295 9.15326 6 9.75 6H14.25C14.8467 6 15.419 5.76295 15.841 5.34099C16.2629 4.91903 16.5 4.34674 16.5 3.75V2.25C16.5 1.65326 16.2629 1.08097 15.841 0.65901C15.419 0.237053 14.8467 0 14.25 0L9.75 0Z" fill="white"/>
<path d="M4.5 9.75C4.5 9.55109 4.57902 9.36032 4.71967 9.21967C4.86032 9.07902 5.05109 9 5.25 9H14.25C14.4489 9 14.6397 9.07902 14.7803 9.21967C14.921 9.36032 15 9.55109 15 9.75C15 9.94891 14.921 10.1397 14.7803 10.2803C14.6397 10.421 14.4489 10.5 14.25 10.5H5.25C5.05109 10.5 4.86032 10.421 4.71967 10.2803C4.57902 10.1397 4.5 9.94891 4.5 9.75ZM4.5 12.75C4.5 12.5511 4.57902 12.3603 4.71967 12.2197C4.86032 12.079 5.05109 12 5.25 12H14.25C14.4489 12 14.6397 12.079 14.7803 12.2197C14.921 12.3603 15 12.5511 15 12.75C15 12.9489 14.921 13.1397 14.7803 13.2803C14.6397 13.421 14.4489 13.5 14.25 13.5H5.25C5.05109 13.5 4.86032 13.421 4.71967 13.2803C4.57902 13.1397 4.5 12.9489 4.5 12.75ZM4.5 15.75C4.5 15.5511 4.57902 15.3603 4.71967 15.2197C4.86032 15.079 5.05109 15 5.25 15H14.25C14.4489 15 14.6397 15.079 14.7803 15.2197C14.921 15.3603 15 15.5511 15 15.75C15 15.9489 14.921 16.1397 14.7803 16.2803C14.6397 16.421 14.4489 16.5 14.25 16.5H5.25C5.05109 16.5 4.86032 16.421 4.71967 16.2803C4.57902 16.1397 4.5 15.9489 4.5 15.75ZM4.5 18.75C4.5 18.5511 4.57902 18.3603 4.71967 18.2197C4.86032 18.079 5.05109 18 5.25 18H14.25C14.4489 18 14.6397 18.079 14.7803 18.2197C14.921 18.3603 15 18.5511 15 18.75C15 18.9489 14.921 19.1397 14.7803 19.2803C14.6397 19.421 14.4489 19.5 14.25 19.5H5.25C5.05109 19.5 4.86032 19.421 4.71967 19.2803C4.57902 19.1397 4.5 18.9489 4.5 18.75ZM17.25 9C17.0511 9 16.8603 9.07902 16.7197 9.21967C16.579 9.36032 16.5 9.55109 16.5 9.75C16.5 9.94891 16.579 10.1397 16.7197 10.2803C16.8603 10.421 17.0511 10.5 17.25 10.5H18.75C18.9489 10.5 19.1397 10.421 19.2803 10.2803C19.421 10.1397 19.5 9.94891 19.5 9.75C19.5 9.55109 19.421 9.36032 19.2803 9.21967C19.1397 9.07902 18.9489 9 18.75 9H17.25ZM17.25 12C17.0511 12 16.8603 12.079 16.7197 12.2197C16.579 12.3603 16.5 12.5511 16.5 12.75C16.5 12.9489 16.579 13.1397 16.7197 13.2803C16.8603 13.421 17.0511 13.5 17.25 13.5H18.75C18.9489 13.5 19.1397 13.421 19.2803 13.2803C19.421 13.1397 19.5 12.9489 19.5 12.75C19.5 12.5511 19.421 12.3603 19.2803 12.2197C19.1397 12.079 18.9489 12 18.75 12H17.25ZM17.25 15C17.0511 15 16.8603 15.079 16.7197 15.2197C16.579 15.3603 16.5 15.5511 16.5 15.75C16.5 15.9489 16.579 16.1397 16.7197 16.2803C16.8603 16.421 17.0511 16.5 17.25 16.5H18.75C18.9489 16.5 19.1397 16.421 19.2803 16.2803C19.421 16.1397 19.5 15.9489 19.5 15.75C19.5 15.5511 19.421 15.3603 19.2803 15.2197C19.1397 15.079 18.9489 15 18.75 15H17.25ZM17.25 18C17.0511 18 16.8603 18.079 16.7197 18.2197C16.579 18.3603 16.5 18.5511 16.5 18.75C16.5 18.9489 16.579 19.1397 16.7197 19.2803C16.8603 19.421 17.0511 19.5 17.25 19.5H18.75C18.9489 19.5 19.1397 19.421 19.2803 19.2803C19.421 19.1397 19.5 18.9489 19.5 18.75C19.5 18.5511 19.421 18.3603 19.2803 18.2197C19.1397 18.079 18.9489 18 18.75 18H17.25Z" fill="white"/>
</svg>
