<svg width="283" height="63" viewBox="0 0 283 63" fill="none" xmlns="http://www.w3.org/2000/svg">
<g clip-path="url(#clip0_830_7273)">
<path d="M51.4144 0H36.7949C32.9763 0 30.4677 1.60968 28.5862 3.8256C27.1298 5.53981 26.0428 7.6094 25.0254 9.56749C24.231 11.0936 23.4785 12.529 22.5865 13.7764C19.7643 17.7483 16.9491 18.3336 16.4892 18.4103H11.479C7.50708 18.4103 4.08564 15.4 3.89053 11.4838C3.68148 7.29582 7.06808 3.8256 11.263 3.8256H19.0884C20.1615 3.8256 21.0256 2.9685 21.0256 1.91629C21.0256 0.864071 20.1615 0.00696831 19.0884 0.00696831H11.5417C5.44446 0 0.246098 4.66877 0.0161439 10.6894C-0.227747 17.0096 4.91487 22.2359 11.263 22.2359H16.754C17.0746 22.208 19.0884 21.9781 21.5761 20.229C22.259 19.7482 22.9837 19.1559 23.7154 18.4103C24.3913 17.7274 25.0742 16.926 25.7432 15.9783C26.7814 14.515 27.6316 12.8914 28.4538 11.3235C30.8788 6.67564 32.5791 3.83257 36.781 3.83257H51.4632C55.4351 3.83257 58.8566 6.84288 59.0517 10.7591C59.2607 14.947 55.8741 18.4172 51.6792 18.4172H45.2405C45.2405 18.4172 45.1708 18.4172 45.1429 18.4172C43.6169 18.4312 42.3765 18.7935 41.3731 19.3719C40.1258 20.0827 39.2408 21.1279 38.6415 22.2359C37.868 23.6644 37.5475 25.2114 37.5057 26.3472V53.2658C37.5057 56.4921 34.7811 59.1122 31.4781 59.1122C28.1751 59.1122 25.4923 56.4851 25.4923 53.2658V38.8553C25.4923 37.7892 24.6143 36.9251 23.5342 36.9251C22.4541 36.9251 21.5761 37.7892 21.5761 38.8553V53.2658C21.5761 58.5965 26.0149 62.9378 31.4781 62.9378C36.9412 62.9378 41.3591 58.6105 41.3731 53.2937C41.3731 53.2867 41.3731 53.2728 41.3731 53.2658V26.4726C41.387 26.0406 41.6239 22.2638 45.2057 22.2359H51.6862C58.0343 22.2359 63.1769 17.0166 62.933 10.6894C62.7031 4.67574 57.5047 0 51.4075 0L51.4144 0Z" fill="white"/>
<path d="M23.0668 33.6104C23.1365 33.8403 23.248 34.0146 23.471 34.0982H23.7079C23.9309 34.0146 24.0493 33.8543 24.112 33.6313C24.1678 33.4222 24.2444 33.2202 24.3141 33.0111C24.8576 31.4293 25.8959 30.2935 27.4359 29.6385C27.7913 29.4852 28.1676 29.3806 28.5369 29.2552C28.7947 29.1646 28.9202 28.9974 28.9271 28.7674C28.9271 28.5305 28.8017 28.3633 28.5369 28.2657C28.3139 28.189 28.0979 28.1194 27.8749 28.0427C26.4255 27.5619 25.3315 26.656 24.6556 25.2902C24.4186 24.8234 24.2723 24.3077 24.0911 23.8129C24.0005 23.5621 23.8333 23.4297 23.6034 23.4297C23.3734 23.4297 23.1992 23.5621 23.1156 23.806C23.032 24.0429 22.9623 24.2798 22.8786 24.5167C22.3839 25.9592 21.471 27.0462 20.0983 27.7222C19.6384 27.9521 19.1367 28.0915 18.6489 28.2727C18.405 28.3633 18.2656 28.5375 18.2656 28.7604C18.2656 28.9904 18.405 29.1646 18.6489 29.2482C18.8858 29.3319 19.1227 29.4085 19.3596 29.4852C20.5861 29.8963 21.5547 30.6419 22.2654 31.722C22.6487 32.3004 22.8647 32.9484 23.0668 33.6034V33.6104Z" fill="white"/>
<path d="M96.8134 16.1484H74.9329C73.2744 16.1484 71.9365 17.4236 71.9365 18.9985C71.9365 20.5733 73.2814 21.8485 74.9329 21.8485H82.8768V43.7987C82.8768 45.3735 84.2217 46.6487 85.8731 46.6487C87.5246 46.6487 88.8695 45.3735 88.8695 43.7987V21.8485H96.8134C98.4719 21.8485 99.8098 20.5733 99.8098 18.9985C99.8098 17.4236 98.4649 16.1484 96.8134 16.1484Z" fill="white"/>
<path d="M104.624 16.1484C102.966 16.1484 101.628 17.4236 101.628 18.9985V43.8057C101.628 45.3805 102.973 46.6557 104.624 46.6557C106.276 46.6557 107.621 45.3805 107.621 43.8057V19.0054C107.621 17.4306 106.276 16.1554 104.624 16.1554V16.1484Z" fill="white"/>
<path d="M127.035 21.4345C129.774 21.4345 132.373 22.4309 134.345 24.2357C135.536 25.3297 137.439 25.2949 138.582 24.1591C139.731 23.0232 139.697 21.2184 138.498 20.1314C135.397 17.2953 131.328 15.7344 127.028 15.7344C117.907 15.7344 110.485 22.7933 110.485 31.4688C110.485 40.1444 117.907 47.2033 127.028 47.2033C131.251 47.2033 135.272 45.6912 138.345 42.9456C140.324 41.1757 138.993 38.0121 136.296 38.0121C135.557 38.0121 134.826 38.2699 134.247 38.7856C132.289 40.5346 129.725 41.4962 127.035 41.4962C121.217 41.4962 116.485 36.9947 116.485 31.4688C116.485 25.936 121.217 21.4345 127.035 21.4345Z" fill="white"/>
<path d="M156.107 29.5843L164.831 20.9784C165.981 19.8426 165.946 18.0378 164.754 16.9507C163.563 15.8567 161.667 15.8916 160.518 17.0274L147.278 30.086V19.0064C147.278 17.4316 145.933 16.1564 144.282 16.1564C142.63 16.1564 141.285 17.4316 141.285 19.0064V43.8136C141.285 45.3884 142.63 46.6636 144.282 46.6636C145.933 46.6636 147.278 45.3884 147.278 43.8136V38.3086L151.919 33.7304L162.183 45.6253C162.775 46.3152 163.633 46.6706 164.504 46.6706C165.173 46.6706 165.848 46.4615 166.406 46.0225C167.688 45.0261 167.869 43.2282 166.824 42.0088L156.121 29.5982L156.107 29.5843Z" fill="white"/>
<path d="M188.048 40.9526H175.61V19.0024C175.61 17.4275 174.265 16.1523 172.614 16.1523C170.962 16.1523 169.617 17.4275 169.617 19.0024V43.8096C169.617 45.3844 170.962 46.6596 172.614 46.6596H188.048C189.707 46.6596 191.045 45.3844 191.045 43.8096C191.045 42.2347 189.7 40.9595 188.048 40.9595V40.9526Z" fill="white"/>
<path d="M212.787 40.9534H198.397V34.2569H210.236C211.895 34.2569 213.233 32.9817 213.233 31.4068C213.233 29.832 211.888 28.5568 210.236 28.5568H198.397V21.8602H212.787C214.445 21.8602 215.783 20.585 215.783 19.0102C215.783 17.4354 214.438 16.1602 212.787 16.1602H195.401C193.742 16.1602 192.404 17.4354 192.404 19.0102V43.8174C192.404 45.3922 193.749 46.6674 195.401 46.6674H212.787C214.445 46.6674 215.783 45.3922 215.783 43.8174C215.783 42.2426 214.438 40.9673 212.787 40.9673V40.9534Z" fill="white"/>
<g clip-path="url(#clip1_830_7273)">
<path d="M278.561 49.3052V31.5778C278.561 24.2054 272.583 18.2266 265.21 18.2266C257.838 18.2266 251.859 24.2054 251.859 31.5778L251.789 32.9576C251.099 39.689 245.413 44.9361 238.508 44.9361C231.135 44.9361 225.156 38.9573 225.156 31.5848C225.156 24.2123 231.121 18.2266 238.494 18.2266C245.427 18.2266 251.127 23.5155 251.782 30.2817" stroke="white" stroke-width="8.9055" stroke-miterlimit="10"/>
<path d="M278.561 49.3052V31.5778C278.561 24.2054 272.583 18.2266 265.21 18.2266C257.838 18.2266 251.859 24.2054 251.859 31.5778L251.789 32.9576C251.099 39.689 245.413 44.9361 238.508 44.9361C231.135 44.9361 225.156 38.9573 225.156 31.5848C225.156 24.2123 231.121 18.2266 238.494 18.2266C240.835 18.2266 243.037 18.8328 244.953 19.892" stroke="white" stroke-width="8.9055" stroke-miterlimit="10"/>
</g>
</g>
<defs>
<clipPath id="clip0_830_7273">
<rect width="282.985" height="62.9378" fill="white" transform="translate(0.0078125)"/>
</clipPath>
<clipPath id="clip1_830_7273">
<rect width="62.7148" height="36.2352" fill="white" transform="translate(220.278 13.3516)"/>
</clipPath>
</defs>
</svg>
